<?xml version="1.0" encoding="utf-8"?>
<!-- Generator: Adobe Illustrator 23.0.3, SVG Export Plug-In . SVG Version: 6.00 Build 0)  -->
<svg version="1.1" id="Layer_1" xmlns="http://www.w3.org/2000/svg" xmlns:xlink="http://www.w3.org/1999/xlink" x="0px" y="0px"
	 viewBox="0 0 500 300" style="enable-background:new 0 0 500 300;" xml:space="preserve">
<style type="text/css">
	.st0{fill:none;stroke:#B76B00;stroke-width:0.75;stroke-linecap:round;stroke-dasharray:1,2;}
	.st1{fill:none;stroke:#FF9500;stroke-width:3;stroke-linecap:round;}
	.st2{fill:none;stroke:#FF9500;stroke-width:4;stroke-linecap:round;stroke-linejoin:round;}
</style>
<title>Ubuntu Bionic Beaver</title>
<g>
	<path class="st0" d="M392,221.7c-1.6,10.5-0.7,37.3,1.5,43.1"/>
	<path class="st0" d="M65.5,247.1c0,11.2-9.1,20.3-20.2,20.3S25,258.3,25,247.1c0-11.2,9.1-20.3,20.2-20.3S65.5,235.9,65.5,247.1z"
		/>
	<path class="st0" d="M444.2,182.3c0,51.2-41.3,92.7-92.3,92.7s-92.3-41.5-92.3-92.7s41.3-92.7,92.3-92.7
		C402.9,89.6,444.2,131.1,444.2,182.3z"/>
	<path class="st0" d="M475,88.9c0,30.3-24.4,54.8-54.6,54.8s-54.6-24.5-54.6-54.8s24.4-54.8,54.6-54.8C450.6,34.1,475,58.6,475,88.9
		z"/>
	<path class="st0" d="M475,89.1"/>
	<path class="st0" d="M459.1,69.6"/>
	<path class="st0" d="M454.6,46.1"/>
	<path class="st0" d="M454.6,46.1c-2.4,17.4,10.4,36.3,20.3,43"/>
	<path class="st0" d="M370,68.6c0,0-37.6,37.3-8.3,89.1c30.5,46.5,82.5,31.7,82.5,31.7"/>
	<path class="st0" d="M315.7,96.6c0,0-0.6-43.2,41.2-63.5c49.9-24.2,81.8,13.5,81.8,13.5"/>
	<path class="st0" d="M473.4,76.2c-4.1,3.2-8.3,6-12.5,9.2"/>
	<path class="st0" d="M475,93.3c0,0-46,5.7-81,50.6c-36.5,46.9-31.7,92.2-31.7,92.2"/>
	<path class="st0" d="M462.3,96.4c-2.4,57.3-42.4,71.7-60,73.8"/>
	<path class="st0" d="M311.8,265.7c10.7-16.1,50.1-42.8,80-43.6"/>
	<path class="st0" d="M268.4,222.8c11.6,0.7,89.2,35.4,102.4,50.1"/>
</g>
<g>
	<ellipse class="st1" cx="425.4" cy="65.2" rx="4.9" ry="5"/>
	<path class="st2" d="M28.9,236c0,0,2.9-19.7,113.8-30.1c60.2-5.6,125.5,16.4,125.5,16.3c0-0.1-26-54.7,13.8-100.9
		c34.3-39.8,83.6-30.8,83.6-30.8s0.5-9,1.5-13.4c0.7-3.1,2.8-8,3.1-8.6c0.3-0.6,26.1-23.2,52.2-23.2c27.8,0,44,13.9,44,13.8
		l0.1,35.4l-4.9,1.6l-0.7-10.5c0,0.1-27.4,24-45.4,55.7c-24.8,43.8-23.2,80.8-23.3,80.9c0,0.1,25.7-2.5,42,1.7
		c13.3,3.5,30.1,12,30.2,12.1L28.9,236z"/>
</g>
</svg>
